<svg version="1.1" viewBox="0.0 0.0 960.0 720.0" fill="none" stroke="none" stroke-linecap="square" stroke-miterlimit="10" xmlns:xlink="http://www.w3.org/1999/xlink" xmlns="http://www.w3.org/2000/svg"><clipPath id="p.0"><path d="m0 0l960.0 0l0 720.0l-960.0 0l0 -720.0z" clip-rule="nonzero"/></clipPath><g clip-path="url(#p.0)"><path fill="#000000" fill-opacity="0.0" d="m0 0l960.0 0l0 720.0l-960.0 0z" fill-rule="evenodd"/><path fill="#000000" fill-opacity="0.0" d="m68.27559 57.278214l891.71655 0l0 197.13387l-891.71655 0z" fill-rule="evenodd"/><path fill="#000000" d="m191.00383 193.04697l0 -14.046875l-43.828125 -16.890625l-3.796875 -1.296875l3.796875 -1.21875l43.828125 -17.171875l0 -14.046875l-60.734375 27.078125l0 10.453125l60.734375 27.140625zm25.054947 -25.359375l0 1.515625q0 8.296875 2.21875 15.5q2.21875 7.1875 6.234375 12.5q4.0 5.296875 9.6875 8.3125q5.703125 3.0 12.71875 3.0q7.171875 0 12.53125 -2.4375q5.375 -2.4375 9.25 -7.15625l0.5625 8.15625l12.171875 0l0 -110.0l-13.25 0l0 40.1875q-3.78125 -4.453125 -8.984375 -6.765625q-5.1875 -2.328125 -12.140625 -2.328125q-7.078125 0 -12.8125 2.9375q-5.734375 2.921875 -9.734375 8.15625q-4.078125 5.21875 -6.265625 12.5q-2.1875 7.265625 -2.1875 15.921875zm13.25 1.515625l0 -1.515625q0 -5.65625 1.21875 -10.765625q1.21875 -5.125 3.796875 -9.0625q2.5 -3.875 6.46875 -6.15625q3.984375 -2.296875 9.5625 -2.296875q6.515625 0 10.875 3.046875q4.375 3.046875 6.953125 7.765625l0 35.953125q-2.578125 5.078125 -6.953125 8.09375q-4.359375 3.0 -11.015625 3.0q-5.515625 0 -9.453125 -2.25q-3.9375 -2.265625 -6.4375 -6.125q-2.578125 -3.875 -3.796875 -8.953125q-1.21875 -5.078125 -1.21875 -10.734375zm111.49246 39.3125q11.3125 0 19.015625 -4.546875q7.703125 -4.546875 11.5625 -10.421875l-8.09375 -6.296875q-3.65625 4.71875 -9.171875 7.59375q-5.5 2.859375 -12.59375 2.859375q-5.375 0 -9.8125 -2.0q-4.4375 -2.015625 -7.59375 -5.53125q-3.078125 -3.28125 -4.828125 -7.578125q-1.75 -4.296875 -2.25 -9.953125l0 -0.515625l55.34375 0l0 -5.9375q0 -8.09375 -2.046875 -15.03125q-2.03125 -6.953125 -6.1875 -12.109375q-4.15625 -5.078125 -10.421875 -7.96875q-6.265625 -2.90625 -14.640625 -2.90625q-6.65625 0 -13.0 2.71875q-6.328125 2.71875 -11.28125 7.796875q-5.0 5.15625 -8.015625 12.578125q-3.0 7.40625 -3.0 16.78125l0 3.015625q0 8.09375 2.71875 14.96875q2.71875 6.875 7.59375 11.875q4.859375 5.015625 11.703125 7.8125q6.84375 2.796875 15.0 2.796875zm-1.71875 -69.46875q5.09375 0 8.78125 1.859375q3.6875 1.859375 6.109375 4.875q2.4375 3.0 3.796875 7.125q1.359375 4.109375 1.359375 7.703125l0 0.640625l-41.671875 0q0.78125 -5.375 2.75 -9.484375q1.984375 -4.125 4.84375 -6.984375q2.859375 -2.796875 6.4375 -4.265625q3.578125 -1.46875 7.59375 -1.46875zm81.92996 68.03125l10.09375 0l31.578125 -77.484375l-13.53125 0l-21.703125 58.4375l-1.28125 4.796875l-1.21875 -4.796875l-22.203125 -58.4375l-13.609375 0l31.875 77.484375zm63.64868 -110.0l0 11.53125l26.359375 0l0 87.015625l-26.359375 0l0 11.453125l64.890625 0l0 -11.453125l-25.28125 0l0 -98.546875l-39.609375 0zm88.00806 32.515625l0 11.53125l26.359314 0l0 54.5l-26.359314 0l0 11.453125l64.890564 0l0 -11.453125l-25.28125 0l0 -66.03125l-39.609314 0zm24.640564 -20.328125q0 3.21875 1.96875 5.375q1.96875 2.140625 5.984375 2.140625q3.9375 0 5.9375 -2.140625q2.0 -2.15625 2.0 -5.375q0 -1.796875 -0.578125 -3.296875q-0.5625 -1.5 -1.703125 -2.515625q-0.9375 -0.921875 -2.375 -1.453125q-1.421875 -0.546875 -3.28125 -0.546875q-1.875 0 -3.34375 0.546875q-1.453125 0.53125 -2.390625 1.453125q-1.140625 1.078125 -1.6875 2.59375q-0.53125 1.5 -0.53125 3.21875zm112.21118 97.8125l13.8125 0l0 -1.140625q-1.28125 -3.234375 -2.0 -7.5625q-0.71875 -4.328125 -0.71875 -8.203125l0 -36.015625q0 -6.515625 -2.359375 -11.375q-2.359375 -4.875 -6.4375 -8.171875q-4.15625 -3.21875 -9.8125 -4.828125q-5.65625 -1.609375 -12.25 -1.609375q-7.234375 0 -12.9375 2.0q-5.6875 2.0 -9.625 5.21875q-4.0 3.296875 -6.125 7.390625q-2.109375 4.078125 -2.171875 8.296875l13.3125 0q0 -2.4375 1.171875 -4.6875q1.1875 -2.25 3.34375 -3.90625q2.140625 -1.640625 5.25 -2.640625q3.125 -1.015625 7.0625 -1.015625q4.234375 0 7.625 1.078125q3.40625 1.078125 5.765625 3.015625q2.359375 2.0 3.640625 4.796875q1.296875 2.78125 1.296875 6.296875l0 6.09375l-14.453125 0q-8.09375 0 -14.65625 1.578125q-6.546875 1.5625 -11.203125 4.71875q-4.65625 3.21875 -7.203125 8.015625q-2.53125 4.796875 -2.53125 11.171875q0 4.875 1.890625 9.0625q1.90625 4.1875 5.40625 7.1875q3.4375 3.09375 8.40625 4.890625q4.984375 1.78125 11.15625 1.78125q3.78125 0 7.140625 -0.796875q3.375 -0.78125 6.390625 -2.140625q2.9375 -1.359375 5.40625 -3.140625q2.46875 -1.796875 4.46875 -3.8125q0.21875 2.4375 0.6875 4.703125q0.46875 2.25 1.25 3.75zm-23.421875 -10.09375q-3.859375 0 -6.796875 -1.0q-2.9375 -1.015625 -4.875 -2.796875q-1.921875 -1.71875 -2.890625 -4.15625q-0.96875 -2.4375 -0.96875 -5.296875q0 -3.015625 1.109375 -5.375q1.109375 -2.359375 3.25 -4.078125q3.015625 -2.4375 8.125 -3.609375q5.125 -1.1875 12.0 -1.1875l12.3125 0l0 15.6875q-1.140625 2.28125 -3.15625 4.40625q-2.0 2.109375 -4.71875 3.75q-2.78125 1.640625 -6.15625 2.65625q-3.359375 1.0 -7.234375 1.0zm66.60181 -67.390625l-11.890625 0l0 77.484375l12.609375 0l0 -61.65625q0.421875 -1.140625 1.09375 -2.140625q0.6875 -1.015625 1.625 -1.796875q1.21875 -1.0 2.96875 -1.53125q1.75 -0.546875 4.125 -0.546875q2.140625 0 3.75 0.546875q1.609375 0.53125 2.6875 1.671875q1.15625 1.21875 1.6875 3.078125q0.53125 1.859375 0.53125 4.296875l0 58.078125l12.609375 0l0 -58.0q0 -0.4375 0 -0.75q0 -0.328125 0 -0.6875q0.21875 -1.78125 0.859375 -3.25q0.640625 -1.46875 1.78125 -2.625q1.15625 -1.0625 2.875 -1.703125q1.71875 -0.65625 4.078125 -0.65625q2.21875 0 3.890625 0.578125q1.6875 0.5625 2.84375 1.71875q1.078125 1.21875 1.640625 3.078125q0.578125 1.859375 0.578125 4.296875l0 58.0l12.59375 0l0 -57.859375q0 -5.59375 -1.296875 -9.703125q-1.28125 -4.125 -3.703125 -6.703125q-2.21875 -2.28125 -5.453125 -3.453125q-3.21875 -1.1875 -7.234375 -1.1875q-2.921875 0.0625 -5.40625 0.78125q-2.46875 0.71875 -4.46875 1.9375q-1.578125 1.0625 -2.9375 2.5q-1.359375 1.4375 -2.359375 3.078125q-0.796875 -1.78125 -1.90625 -3.21875q-1.109375 -1.4375 -2.46875 -2.4375q-1.859375 -1.28125 -4.328125 -1.953125q-2.46875 -0.6875 -5.546875 -0.6875q-5.4375 0.0625 -9.28125 2.359375q-3.828125 2.28125 -6.1875 6.375l-0.359375 -7.3125zm82.21118 63.375l63.234375 -27.140625l0 -10.453125l-63.234375 -27.0625l0 13.671875l46.328125 17.1875l4.296875 1.359375l-4.296875 1.21875l-46.328125 17.46875l0 13.75z" fill-rule="nonzero"/></g></svg>