<svg width="301" height="100" viewBox="0 0 301 100" fill="none" xmlns="http://www.w3.org/2000/svg">
<path d="M49.0428 63.8557V58.9002L35.3008 52.9416L34.1103 52.4841L35.3008 52.0541L49.0428 45.9963V41.0408L30 50.5934V54.281L49.0428 63.8557ZM56.8985 54.9094V55.4441C56.8985 57.3954 57.1304 59.2181 57.5942 60.9122C58.058 62.6026 58.7096 64.0725 59.5489 65.3219C60.385 66.5676 61.3975 67.5451 62.5864 68.2544C63.7785 68.9599 65.1078 69.3127 66.5742 69.3127C68.0733 69.3127 69.383 69.0261 70.5033 68.4528C71.6268 67.8795 72.5936 67.038 73.4036 65.9282L73.5799 68.8056H77.3963V30H73.2419V44.1773C72.4515 43.13 71.5125 42.3344 70.4249 41.7905C69.3406 41.243 68.0717 40.9692 66.6183 40.9692C65.1388 40.9692 63.7997 41.3146 62.6011 42.0055C61.4024 42.6927 60.385 43.6518 59.5489 44.8828C58.6965 46.1102 58.0416 47.5801 57.5844 49.2925C57.1272 51.0013 56.8985 52.8736 56.8985 54.9094V54.9094ZM61.053 55.4441V54.9094C61.053 53.5792 61.1803 52.3132 61.4351 51.1116C61.6898 49.9062 62.0867 48.8405 62.6256 47.9145C63.1481 47.0032 63.8242 46.2792 64.6538 45.7427C65.4866 45.2025 66.486 44.9324 67.652 44.9324C69.014 44.9324 70.1506 45.2907 71.0618 46.0073C71.9763 46.7239 72.703 47.6371 73.2419 48.7468V61.4303C72.703 62.6246 71.9763 63.5764 71.0618 64.2856C70.1506 64.9912 68.9993 65.3439 67.6079 65.3439C66.455 65.3439 65.467 65.0793 64.644 64.5502C63.8209 64.0173 63.1481 63.2971 62.6256 62.3894C62.0867 61.4781 61.6898 60.4253 61.4351 59.231C61.1803 58.0367 61.053 56.7744 61.053 55.4441V55.4441ZM96.0105 69.3127C98.3751 69.3127 100.363 68.778 101.973 67.7086C103.583 66.6393 104.791 65.4138 105.598 64.032L103.06 61.8106C102.296 62.9204 101.337 63.8134 100.185 64.4895C99.0349 65.162 97.7186 65.4983 96.2358 65.4983C95.1123 65.4983 94.0868 65.2631 93.1592 64.7927C92.2317 64.3187 91.438 63.6682 90.7783 62.8414C90.1348 62.0697 89.6302 61.1786 89.2644 60.168C88.8986 59.1575 88.6635 57.987 88.559 56.6568V56.4749H105.912V54.3803C105.912 52.4767 105.698 50.7092 105.27 49.0776C104.845 47.4423 104.198 46.0183 103.33 44.8056C102.461 43.6113 101.372 42.6743 100.062 41.9944C98.7523 41.3109 97.2222 40.9692 95.4716 40.9692C94.0802 40.9692 92.7216 41.2889 91.3955 41.9283C90.0728 42.5677 88.8937 43.4846 87.8584 44.6789C86.8133 45.8915 85.9755 47.3706 85.3452 49.1162C84.7181 50.858 84.4045 52.8313 84.4045 55.0362V56.1001C84.4045 58.0036 84.6887 59.7638 85.257 61.3807C85.8253 62.9976 86.6189 64.394 87.6379 65.5699C88.6537 66.7495 89.8768 67.6682 91.3074 68.326C92.7379 68.9838 94.3056 69.3127 96.0105 69.3127ZM95.4716 44.8056C96.5363 44.8056 97.4541 45.0243 98.2249 45.4616C98.9957 45.8989 99.6342 46.4722 100.14 47.1814C100.65 47.8869 101.047 48.7248 101.331 49.6949C101.615 50.6614 101.757 51.5672 101.757 52.4124V52.6384H88.6913C88.8546 51.3743 89.142 50.259 89.5535 49.2925C89.9683 48.3224 90.4745 47.5011 91.0722 46.8286C91.6699 46.1708 92.3427 45.6692 93.0906 45.3238C93.8386 44.9784 94.6322 44.8056 95.4716 44.8056ZM121.16 68.8056H124.325L134.226 41.4708H129.983L123.178 62.0862L122.777 63.7785L122.395 62.0862L115.433 41.4708H111.166L121.16 68.8056ZM141.117 30V34.068H149.381V64.7652H141.117V68.8056H161.462V64.7652H153.536V30H141.117V30ZM168.711 41.4708V45.5388H176.975V64.7652H168.711V68.8056H189.057V64.7652H181.13V41.4708H168.711ZM176.437 34.2995C176.437 35.0565 176.642 35.6885 177.054 36.1957C177.465 36.6991 178.091 36.9508 178.93 36.9508C179.753 36.9508 180.374 36.6991 180.792 36.1957C181.21 35.6885 181.419 35.0565 181.419 34.2995C181.419 33.8769 181.359 33.4892 181.238 33.1364C181.12 32.7836 180.942 32.4878 180.704 32.249C180.508 32.0321 180.26 31.8613 179.959 31.7363C179.662 31.6077 179.319 31.5434 178.93 31.5434C178.538 31.5434 178.189 31.6077 177.882 31.7363C177.578 31.8613 177.328 32.0321 177.132 32.249C176.894 32.5025 176.717 32.8075 176.603 33.164C176.492 33.5168 176.437 33.8953 176.437 34.2995ZM211.619 68.8056H215.95V68.4032C215.682 67.6425 215.473 66.7532 215.323 65.7353C215.173 64.7174 215.098 63.7528 215.098 62.8414V50.1359C215.098 48.6035 214.851 47.2659 214.358 46.1231C213.865 44.9765 213.192 44.0156 212.34 43.2402C211.471 42.4832 210.445 41.9154 209.263 41.5369C208.081 41.1584 206.8 40.9692 205.422 40.9692C203.91 40.9692 202.558 41.2044 201.366 41.6747C200.177 42.1451 199.171 42.7588 198.348 43.5158C197.512 44.2912 196.872 45.1603 196.427 46.1231C195.986 47.0822 195.759 48.0578 195.746 49.05H199.92C199.92 48.4767 200.043 47.9255 200.288 47.3964C200.536 46.8672 200.886 46.4078 201.336 46.0183C201.784 45.6325 202.332 45.322 202.982 45.0868C203.636 44.8479 204.374 44.7285 205.197 44.7285C206.082 44.7285 206.879 44.8553 207.588 45.1088C208.3 45.3624 208.902 45.717 209.395 46.1727C209.888 46.643 210.269 47.2071 210.537 47.8649C210.808 48.519 210.943 49.2595 210.943 50.0863V52.236H206.412C204.72 52.236 203.188 52.4216 201.816 52.7928C200.448 53.1602 199.277 53.7151 198.304 54.4574C197.33 55.2144 196.578 56.157 196.045 57.2852C195.516 58.4133 195.252 59.727 195.252 61.2264C195.252 62.3729 195.449 63.4386 195.844 64.4234C196.243 65.4082 196.808 66.2534 197.539 66.959C198.258 67.6866 199.137 68.2617 200.175 68.6843C201.217 69.1032 202.383 69.3127 203.673 69.3127C204.464 69.3127 205.21 69.219 205.912 69.0316C206.618 68.8478 207.285 68.5961 207.916 68.2764C208.53 67.9567 209.095 67.5874 209.611 67.1685C210.127 66.7459 210.594 66.2975 211.012 65.8235C211.058 66.3968 211.13 66.9498 211.228 67.4826C211.326 68.0118 211.456 68.4528 211.619 68.8056ZM204.276 65.2447C203.469 65.2447 202.759 65.1271 202.145 64.8919C201.531 64.6531 201.021 64.3242 200.616 63.9053C200.214 63.501 199.912 63.0123 199.71 62.439C199.507 61.8658 199.406 61.2429 199.406 60.5704C199.406 59.8612 199.522 59.2291 199.754 58.6742C199.986 58.1193 200.325 57.6398 200.773 57.2356C201.403 56.6623 202.252 56.2379 203.32 55.9622C204.392 55.683 205.646 55.5433 207.083 55.5433H210.943V61.0775C210.705 61.614 210.375 62.1322 209.954 62.632C209.536 63.128 209.043 63.569 208.474 63.9549C207.893 64.3407 207.249 64.6531 206.544 64.8919C205.842 65.1271 205.086 65.2447 204.276 65.2447ZM225.158 41.4708H221.43V68.8056H225.384V47.0546C225.472 46.7863 225.586 46.5346 225.726 46.2994C225.87 46.0606 226.04 45.8493 226.236 45.6655C226.491 45.4304 226.801 45.2503 227.167 45.1254C227.533 44.9967 227.964 44.9324 228.46 44.9324C228.908 44.9324 229.3 44.9967 229.636 45.1254C229.972 45.2503 230.253 45.4469 230.479 45.7152C230.72 46.0018 230.897 46.3637 231.008 46.801C231.119 47.2383 231.174 47.7436 231.174 48.3169V68.8056H235.128V48.3444C235.128 48.2416 235.128 48.1534 235.128 48.0799C235.128 48.0027 235.128 47.9219 235.128 47.8373C235.174 47.4184 235.263 47.0362 235.397 46.6908C235.531 46.3454 235.717 46.0367 235.956 45.7648C236.197 45.5149 236.498 45.3146 236.857 45.1639C237.216 45.0096 237.643 44.9324 238.136 44.9324C238.6 44.9324 239.006 45.0004 239.356 45.1364C239.708 45.2687 240.006 45.4708 240.247 45.7427C240.473 46.0293 240.644 46.3913 240.762 46.8286C240.883 47.2659 240.943 47.7712 240.943 48.3444V68.8056H244.892V48.3941C244.892 47.0785 244.756 45.9375 244.485 44.971C244.217 44.0009 243.83 43.2126 243.324 42.6063C242.86 42.0698 242.29 41.6637 241.614 41.3881C240.941 41.1088 240.185 40.9692 239.346 40.9692C238.735 40.9839 238.17 41.0758 237.651 41.2448C237.135 41.4138 236.668 41.6417 236.25 41.9283C235.92 42.1782 235.613 42.4722 235.329 42.8102C235.045 43.1483 234.798 43.5103 234.589 43.8961C234.422 43.4772 234.223 43.0987 233.991 42.7606C233.759 42.4226 233.501 42.1359 233.217 41.9007C232.829 41.5994 232.376 41.3697 231.86 41.2117C231.344 41.05 230.764 40.9692 230.121 40.9692C228.984 40.9839 228.014 41.2613 227.211 41.8015C226.411 42.338 225.764 43.0877 225.271 44.0505L225.158 41.4708ZM250.935 63.8281L270.761 54.2535V50.5658L250.935 41.0188V45.8419L265.461 51.9053L266.808 52.3849L265.461 52.8148L250.935 58.9774V63.8281Z" fill="black"/>
</svg>
